<svg xmlns="http://www.w3.org/2000/svg" width="12" height="12" viewBox="0 0 12 12">
    <g fill="#7F7F7F" fill-rule="nonzero">
        <path d="M1.113 3.584A5.141 5.141 0 0 1 4.2 1.5a.312.312 0 0 0 .219-.18.292.292 0 0 0-.025-.275A2.347 2.347 0 0 0 2.424 0C1.139 0 .097.997.097 2.226c0 .521.188 1 .503 1.38.063.076.16.118.262.114a.32.32 0 0 0 .251-.136zM9.514 0C8.687 0 7.962.414 7.55 1.037a.292.292 0 0 0-.026.276c.039.091.12.158.22.18a5.141 5.141 0 0 1 3.101 2.068.32.32 0 0 0 .253.136c.102.003.2-.04.262-.118a2.15 2.15 0 0 0 .482-1.353C11.84.996 10.799 0 9.514 0zM11.114 6.817c0-.86-.234-1.667-.641-2.37-.755-1.301-2.111-2.237-3.708-2.471a5.344 5.344 0 0 0-.778-.063c-.277 0-.547.027-.812.068-1.59.244-2.94 1.183-3.686 2.487A4.707 4.707 0 0 0 .86 6.817c0 1.457.672 2.764 1.73 3.663l-.432.582a.541.541 0 0 0 .138.776.598.598 0 0 0 .81-.131l.433-.582c.728.38 1.562.597 2.448.597.886 0 1.72-.217 2.448-.597l.432.582a.597.597 0 0 0 .81.131.541.541 0 0 0 .139-.776l-.432-.582c1.058-.899 1.73-2.206 1.73-3.663zM5.987 10.35c-2.036 0-3.693-1.585-3.693-3.533 0-.607.161-1.179.444-1.679.54-.95 1.522-1.635 2.68-1.807.186-.028.375-.047.57-.047.182 0 .36.017.537.042 1.168.164 2.161.848 2.706 1.803a3.39 3.39 0 0 1 .45 1.688c0 1.948-1.657 3.533-3.694 3.533z"/>
        <path d="M8.056 7.643l-1.409-.832a.64.64 0 0 0-.243-.39l.064-1.69a.4.4 0 0 0-.394-.406.401.401 0 0 0-.423.377l-.065 1.693a.643.643 0 0 0-.29.532c0 .36.305.652.682.652a.7.7 0 0 0 .297-.068l1.352.799c.067.04.141.058.214.058.137 0 .271-.066.349-.185a.382.382 0 0 0-.134-.54z"/>
    </g>
</svg>
