<svg xmlns="http://www.w3.org/2000/svg" width="12" height="14" viewBox="0 0 12 14">
    <path fill="#44B91A" fill-rule="nonzero" d="M10.38 0H4.292c-.884 0-1.604.692-1.604 1.543v.19h-1.06c-.885 0-1.604.691-1.604 1.542v9.123c0 .85.72 1.543 1.604 1.543h6.087c.885 0 1.604-.692 1.604-1.543v-.19h1.06c.885 0 1.604-.692 1.604-1.542V1.543C11.983.693 11.264 0 10.38 0zM8.285 12.398a.56.56 0 0 1-.57.548H1.628a.56.56 0 0 1-.57-.548V3.275a.56.56 0 0 1 .57-.548h6.087a.56.56 0 0 1 .57.548v9.123zm2.664-1.732a.56.56 0 0 1-.57.547H9.32V3.275c0-.85-.72-1.543-1.604-1.543H3.723v-.19a.56.56 0 0 1 .57-.547h6.087a.56.56 0 0 1 .569.548v9.123z"/>
</svg>
