<svg xmlns="http://www.w3.org/2000/svg" width="127" height="122" viewBox="0 0 127 122">
    <defs>
        <linearGradient id="a" x1="111.139%" x2="-22.476%" y1="-31.827%" y2="111.199%">
            <stop offset="0%" stop-color="#3A3897"/>
            <stop offset="100%" stop-color="#29ABE2"/>
        </linearGradient>
        <linearGradient id="b" x1="115.845%" x2="-27.181%" y1="106.493%" y2="-27.122%">
            <stop offset="0%" stop-color="#3A3897"/>
            <stop offset="100%" stop-color="#29ABE2"/>
        </linearGradient>
        <linearGradient id="c" x1="-27.181%" x2="115.845%" y1="-27.122%" y2="106.493%">
            <stop offset="0%" stop-color="#3A3897"/>
            <stop offset="100%" stop-color="#29ABE2"/>
        </linearGradient>
    </defs>
    <g fill="none" fill-rule="evenodd">
        <circle cx="32.5" cy="32.5" r="32.5" fill="url(#a)"/>
        <path fill="#FFF" fill-rule="nonzero" d="M42.6 34.816a4.89 4.89 0 0 0-1.87-1.85 9.83 9.83 0 0 0-2.36-.83 7 7 0 0 0 2.31-1.24 5.22 5.22 0 0 0 1.32-1.76 4.75 4.75 0 0 0 .5-2c0-.987-.31-1.95-.89-2.75a5.56 5.56 0 0 0-2.52-1.92 8.37 8.37 0 0 0-1.47-.41v-2a1.86 1.86 0 0 0-3.72 0v1.69h-2.39v-1.75a1.86 1.86 0 1 0-3.71 0v1.75h-4.94a2.15 2.15 0 0 0-.73.12 1.57 1.57 0 0 0-1.13 1.41 1.59 1.59 0 0 0 1.13 1.42 1.9 1.9 0 0 0 .36.09c.123.01.247.01.37 0h.75c.193.01.383.053.56.13a.88.88 0 0 1 .43.42c.117.406.161.83.13 1.25v12.26a3.42 3.42 0 0 1-.13 1.23.88.88 0 0 1-.41.42h-1.33a2.15 2.15 0 0 0-.73.12 1.53 1.53 0 0 0 0 2.95 1.9 1.9 0 0 0 .36.09c.123.01.247.01.37 0h4.94v1.76a1.86 1.86 0 0 0 3.71 0v-1.73h2.39v1.76a1.86 1.86 0 0 0 3.71 0v-2.07a8.85 8.85 0 0 0 1.65-.46 6.49 6.49 0 0 0 3-2.24 5.38 5.38 0 0 0 1.06-3.22 5.15 5.15 0 0 0-.72-2.64zm-12.44-9.53h2.4a10.72 10.72 0 0 1 2.93.27c.5.143.938.445 1.25.86.295.44.445.96.43 1.49a2.45 2.45 0 0 1-.45 1.46 2.63 2.63 0 0 1-1.37.95 8.75 8.75 0 0 1-2.79.32h-2.4v-5.35zM37 38.856a3 3 0 0 1-1.56 1.07 8.76 8.76 0 0 1-2.31.26h-1.66a3 3 0 0 1-1-.09.49.49 0 0 1-.26-.3 5.72 5.72 0 0 1-.07-1.19v-4.75H33a8.33 8.33 0 0 1 2.78.35 2.73 2.73 0 0 1 1.36 1 2.86 2.86 0 0 1 .46 1.64 3.12 3.12 0 0 1-.6 2.01z"/>
        <circle cx="94.5" cy="89.5" r="32.5" fill="#44B91A"/>
        <path fill="#000" fill-rule="nonzero" d="M96.31 101.54v.63-.93c-.01.1-.01.2 0 .3z"/>
        <path fill="#FFF" fill-rule="nonzero" d="M100.75 98.11a6.9 6.9 0 0 1-3.57 2.29c-.52.14-.8.39-.86.84-.01.1-.01.2 0 .3v.95a1.89 1.89 0 0 1-1.87 1.84 1.9 1.9 0 0 1-1.86-1.49 1.19 1.19 0 0 1 0-.33v-1.11c-.06-.45-.27-.5-1-.62a12.79 12.79 0 0 1-3.63-1c-.91-.44-1-.67-.74-1.61.19-.71.39-1.41.6-2.11.21-.7.48-.9 1.22-.52a11.88 11.88 0 0 0 4 1.21 5 5 0 0 0 2.64-.35 2.06 2.06 0 0 0 .49-3.61 5.92 5.92 0 0 0-1.5-.88A34.62 34.62 0 0 1 90.5 90c-2.12-1.25-3.5-3-3.31-5.57a6.16 6.16 0 0 1 4.49-5.69c1-.34 1.09-.38 1.11-1.11v-.77A1.84 1.84 0 0 1 94.63 75a1.85 1.85 0 0 1 1.85 1.83c0 1.27 0 1.28 1.3 1.48a11.78 11.78 0 0 1 2.86.85.83.83 0 0 1 .54 1.11c-.23.8-.44 1.6-.7 2.38-.26.78-.48.86-1.19.51a9.11 9.11 0 0 0-4.53-.86 3.57 3.57 0 0 0-1.21.24 1.71 1.71 0 0 0-.42 3.05 8 8 0 0 0 2 1.1 35.2 35.2 0 0 1 3.59 1.63 6.44 6.44 0 0 1 2.03 9.79z"/>
        <path d="M92.79 77.63h-.04"/>
        <g fill="url(#b)" fill-rule="nonzero" transform="translate(71 4)">
            <path d="M50 46.73a1.51 1.51 0 0 1-1.49-1.33C44 5.89 2.86 4 2.45 4a1.5 1.5 0 0 1 .1-3C3 1 46.65 3 51.49 45.05a1.51 1.51 0 0 1-1.32 1.67l-.17.01z"/>
        </g>
        <g fill="url(#c)" fill-rule="nonzero" transform="rotate(180 28.5 59)">
            <path d="M50 46.73a1.51 1.51 0 0 1-1.49-1.33C44 5.89 2.86 4 2.45 4a1.5 1.5 0 0 1 .1-3C3 1 46.65 3 51.49 45.05a1.51 1.51 0 0 1-1.32 1.67l-.17.01z"/>
        </g>
    </g>
</svg>
