<svg xmlns="http://www.w3.org/2000/svg" width="173" height="60" viewBox="0 0 173 60">
    <defs>
        <linearGradient id="a" x1="111.139%" x2="-22.476%" y1="-31.827%" y2="111.199%">
            <stop offset="0%" stop-color="#3A3897"/>
            <stop offset="100%" stop-color="#29ABE2"/>
        </linearGradient>
    </defs>
    <g fill="none" fill-rule="nonzero">
        <path fill="url(#a)" d="M63.308 46.09L58.1 51.819H46.864v-4.09h10.14v-3.819h-10.14v-3.545h11.51z"/>
        <path fill="#0571C1" d="M66.596 49.636l-.017.02 5.225 5.98h.034z"/>
        <path fill="url(#a)" d="M76.189 38.455V54l-7.126-7.91zM89.617 42.818c0 1.637-1.096 2.455-2.74 2.455h-6.03v-4.91h5.756c1.644 0 2.74.819 3.014 2.455z"/>
        <path fill="#2FABF7" d="M42.48 16.91l-1.176-2.534-2.114-4.558.042.041 2.09 4.534z"/>
        <path fill="#228FE0" d="M172.657 50.714c0 .109-.006.222-.02.34 0-.102.024-.207.034-.313l-.014-.027zm-19.831-10.405c.473-2.018 2.055-3.692 5.114-4.234-3.189.402-4.68 2.233-5.128 4.234h.014z"/>
        <path fill="url(#a)" d="M171.287 45V32.727h-11.51a11.01 11.01 0 0 0-4.005.651l-.38-.378c-.548.273-.822.545-1.097.545V31.91H141.69c-1.919 0-4.385.546-5.481 1.636V31.91h-22.473v1.636c-1.645-1.363-4.66-1.636-6.03-1.636H92.906v1.636c-1.37-1.363-4.659-1.636-6.303-1.636H70.159L66.322 36l-3.562-4.09h-3.015l.822.817H38.094v26.728h24.117l3.964-3.945 3.426 3.945h15.073v-6.273H86.318c1.919 0 4.385 0 6.304-.818v7.363h12.332v-7.636h.559c.822 0 .822 0 .822.818v6.818h37.272c2.467 0 4.933-.545 6.303-1.636v1.636h11.785c2.467 0 4.933-.272 6.577-1.363a8.732 8.732 0 0 0 3.22-3.375 9.867 9.867 0 0 0 1.131-3.948c0-.11.007-.223.02-.341v-.532A10.406 10.406 0 0 0 171.288 45zM86.33 48.545h-5.481v7.091h-9.044l-5.225-5.98-.257-.292-6.029 6.272h-17.54v-19.09h17.814l5.755 6.272.134-.16.14.16 5.756-6.273h14.525c2.812 0 5.967.682 7.166 3.519.163.632.241 1.283.233 1.936 0 5.455-3.836 6.545-7.947 6.545zm27.406-.272c.548.818.822 1.909.822 3.545v3.818h-4.66v-2.454c0-1.091 0-3-.821-3.818-.548-.819-1.645-.819-3.29-.819h-4.932v7.091h-4.66V36.273h10.415c2.193 0 4.111 0 5.481.818a4.82 4.82 0 0 1 2.467 4.364c0 3-1.919 4.636-3.289 5.181 1.37.546 2.193 1.091 2.467 1.637zm18.91-7.91h-10.689v3.546h10.415v3.818h-10.415v3.818h10.689v4.091h-15.348V36.273h15.348v4.09zm11.51 15.273h-8.77v-4.09h8.77c.822 0 1.37 0 1.919-.546a1.97 1.97 0 0 0 0-2.727 2.323 2.323 0 0 0-1.645-.546c-4.385-.272-9.592 0-9.592-6 0-2.727 1.645-5.727 6.578-5.727h9.044v4.636h-8.496c-.822 0-1.37 0-1.919.273-.548.273-.548.818-.548 1.364 0 .818.548 1.09 1.096 1.363a3.492 3.492 0 0 0 1.645.273h2.466c2.467 0 4.111.546 5.207 1.636.823.819 1.37 2.182 1.37 4.091 0 4.091-2.466 6-7.125 6zm23.57-1.909c-1.097 1.091-3.015 1.91-5.756 1.91h-8.77v-4.092h8.77c.822 0 1.37 0 1.919-.545a1.97 1.97 0 0 0 0-2.727 2.323 2.323 0 0 0-1.645-.546c-4.385-.272-9.592 0-9.592-6 0-.257.014-.514.045-.77 0-.14.037-.28.065-.42 0-.071.03-.146.048-.218.448-2 1.939-3.838 5.114-4.234.428-.05.858-.075 1.288-.075h9.044v4.637h-8.773a3.44 3.44 0 0 0-1.624.269 2.078 2.078 0 0 0-.548 1.364c0 .818.274 1.09 1.096 1.363a3.492 3.492 0 0 0 1.645.273h2.74c1.073-.025 2.142.12 3.17.426a5.044 5.044 0 0 1 2.037 1.21.268.268 0 0 1 .274.273c.276.368.499.774.662 1.203.303.838.45 1.725.435 2.615a5.536 5.536 0 0 1-1.645 4.084z"/>
        <path fill="url(#a)" d="M109.624 42.818c0 .818-.274 1.637-.822 1.91-.549.272-1.37.272-2.193.272h-5.481v-4.364h5.481c.822 0 1.644 0 2.193.273.548.273 1.096.818.822 1.91z"/>
        <path fill="#228FE0" d="M88.042 16.105c.45.005.898.087 1.322.242a2.804 2.804 0 0 0-1.322-.242zm-48.81-6.246l-.042-.04 2.114 4.557h.017l-2.09-4.517z"/>
        <path fill="url(#a)" d="M148.266 0v3.273L146.622 0H133.74v3.273L132.097 0h-17.54c-3.015 0-5.481.545-7.674 1.636V0H94.55v1.636C93.18.546 91.536 0 89.343 0H45.22l-3.015 6.818L39.19 0H25.213v3.273L23.843 0H11.785L6.303 12.818 0 26.728h.12L0 27h13.977l.103-.273 1.541-4.09h3.837L21.103 27h15.895v-3.273L38.368 27h7.948l1.37-3.273V27h38.095v-7.09h.548c.548 0 .548 0 .548.817v6h19.732v-1.636a16.483 16.483 0 0 0 7.4 1.636h8.221l1.645-4.363h3.837l1.644 4.363h15.895v-4.09l2.467 4.09h12.88V0h-12.332zM55.36 22.91h-4.659V8.522l-3.806 8.69-.832 1.898-1.665 3.798h-4.111l-6.578-15v15h-9.318l-1.918-4.09h-9.318l-1.645 4.363H6.303l.117-.273h-.117l8.222-19.09h6.852L29.05 22.09V3.818h7.4l2.782 6.041 2.09 4.534 1.157 2.516L47.96 3.82h7.4v19.09zm18.91-15H63.582v3.545h10.414v3.818H63.582v3.818H74.27v4.09H58.923V3.819H74.27V7.91zM95.373 9a5.45 5.45 0 0 1-2.936 5.022c-.12.061-.24.115-.343.16.641.128 1.246.394 1.771.78.168.175.31.37.425.583a6.791 6.791 0 0 1 .809 3.546v3.818h-4.111v-2.182c0-1.09 0-2.727-.822-3.818a2.536 2.536 0 0 0-.82-.545 4.008 4.008 0 0 0-1.322-.242h-6.08v7.06h-4.66V3.545H87.7c2.467 0 4.11 0 5.481.819 1.37.818 2.193 2.181 2.193 4.363V9zm7.673 14.182h-4.659V3.545h4.66v19.637zm53.442-.273h-6.03l-8.77-14.454v14.454h-9.317l-1.645-4.09h-9.592l-1.644 4.363h-5.207c-2.193 0-4.933-.546-6.578-2.182-1.644-1.636-2.466-3.818-2.466-7.364 0-2.727.548-5.454 2.466-7.636 1.37-1.636 3.837-2.182 6.852-2.182h4.385V7.91h-4.385c-1.645 0-2.467.273-3.563 1.091-.822.818-1.37 2.455-1.37 4.364 0 2.181.274 3.545 1.37 4.636.822.818 1.918 1.09 3.289 1.09h1.918l6.304-15h6.851l7.674 18.274V4.09h6.851l7.948 13.364V4.09h4.659v18.818z"/>
        <path fill="url(#a)" d="M20.829 14.727h-6.03l3.015-7.636zM129.082 14.727h-6.303l3.288-7.636zM90.44 10.09c0 .82-.274 1.637-.823 1.91-.548.273-1.37.273-2.192.273h-5.481V7.909h5.481c.822 0 1.644 0 2.192.273.549.273 1.097.818.823 1.909z"/>
    </g>
</svg>
