<svg xmlns="http://www.w3.org/2000/svg" width="137" height="36" viewBox="0 0 137 36">
    <defs>
        <linearGradient id="a" x1="111.139%" x2="-22.476%" y1="-31.827%" y2="111.199%">
            <stop offset="0%" stop-color="#3A3897"/>
            <stop offset="100%" stop-color="#29ABE2"/>
        </linearGradient>
    </defs>
    <g fill="url(#a)" fill-rule="nonzero">
        <path d="M105.38 6.476c-3.365 0-6.025.872-8.06 1.27l-.625 5c1.017-.478 4.225-1.348 6.886-1.43 2.661-.08 4.225.476 3.677 2.698-7.901 0-13.223 1.585-14.319 6.584-1.566 8.57 8.06 8.333 11.894 4.603l-.468 2.061h7.041l3.051-13.648c1.25-5.79-4.148-7.216-9.078-7.138zm.469 13.964c-.39 1.824-1.876 2.618-3.676 2.699-1.565.079-2.974-1.273-1.956-2.859.783-1.347 2.974-1.665 4.303-1.665h1.723c-.16.635-.238 1.19-.394 1.825zM120.48 1.08l-5.826 26.183h7.153l5.899-26.182zM87.616 1.16H74.52l-5.803 26.103h7.605l1.962-8.647h5.41c5.334 0 9.725-3.174 10.9-8.57C95.93 3.937 91.38 1.16 87.617 1.16zm-.232 8.886c-.472 1.983-2.511 3.57-4.473 3.57h-3.529l1.57-7.141h3.763c1.961.001 3.137 1.587 2.669 3.571zM36.798 6.476c-3.325 0-5.953.872-7.887 1.27l-.615 4.998c.927-.477 4.096-1.347 6.725-1.43 2.628-.078 4.174.477 3.708 2.7-7.805 0-13.06 1.584-14.143 6.583-1.547 8.57 7.96 8.333 11.67 4.603l-.462 2.061h7.034l3.014-13.648c1.235-5.789-4.177-7.215-9.044-7.137zm.541 13.964c-.388 1.824-1.935 2.618-3.71 2.699-1.546.079-2.86-1.273-1.855-2.859.771-1.347 2.936-1.665 4.173-1.665h1.78c-.158.635-.312 1.19-.388 1.825zM48.904 6.853h7.034l1.135 12.156 6.88-12.156h7.26L54.5 35.945h-7.864l5.14-8.552zM19.304 1.16H6.174L.353 27.263H8.06l1.886-8.647h5.504c5.268 0 9.671-3.174 10.85-8.57 1.337-6.109-3.143-8.886-6.996-8.886zm-.236 8.886c-.471 1.983-2.436 3.57-4.403 3.57h-3.616L12.7 6.474h3.773c1.887.001 3.144 1.587 2.594 3.571z"/>
        <g>
            <path d="M132.051 4.511V1.385h-1v-.42h2.409v.42h-1.005v3.126zM133.857 4.511V.966h.603l.72 2.508c.067.234.114.407.145.522.035-.128.089-.317.16-.566l.731-2.464h.54V4.51h-.386V1.543l-.886 2.968h-.36l-.88-3.017V4.51h-.387z"/>
        </g>
    </g>
</svg>
