<svg xmlns="http://www.w3.org/2000/svg" xmlns:xlink="http://www.w3.org/1999/xlink" viewBox="0 0 127 122"><defs><style>.cls-1{fill:#482077;opacity:0;}.cls-2{fill:#44b91a;}.cls-3{fill:#fff;}.cls-4{fill:url(#linear-gradient);}</style><linearGradient id="linear-gradient" x1="1351.28" y1="4935.19" x2="1349.94" y2="4933.76" gradientTransform="matrix(77, 0, 0, -59, -103932.86, 291218.25)" gradientUnits="userSpaceOnUse"><stop offset="0" stop-color="#3a3897"/><stop offset="1" stop-color="#29abe2"/></linearGradient></defs><title>walletttt</title><g id="Layer_2" data-name="Layer 2"><g id="Capa_1" data-name="Capa 1"><rect class="cls-1" width="127" height="122"/><circle class="cls-2" cx="42.23" cy="55.03" r="14"/><path class="cls-3" d="M46.63,54.25a2.14,2.14,0,0,0-1.05-.42,4.36,4.36,0,0,0-1.08.07,3.16,3.16,0,0,0,.71-.88,2.27,2.27,0,0,0,.23-.92,2.2,2.2,0,0,0-.14-.88,2,2,0,0,0-.82-.94,2.46,2.46,0,0,0-1.32-.34,3.51,3.51,0,0,0-.65.09l-.34-.79a.8.8,0,0,0-1.05-.43.79.79,0,0,0-.42,1h0l.28.67-.95.4-.29-.69a.8.8,0,0,0-1.52.52.31.31,0,0,0,.05.1l.29.7-2,.83a1,1,0,0,0-.27.17.69.69,0,0,0-.21.75.7.7,0,0,0,.69.37l.16,0,.14-.06.3-.13a.69.69,0,0,1,.25,0,.38.38,0,0,1,.24.09,1.66,1.66,0,0,1,.26.47l2.06,4.86a1.44,1.44,0,0,1,.16.51.46.46,0,0,1-.09.24l-.53.23a.92.92,0,0,0-.27.16.66.66,0,0,0,.5,1.17l.15,0,.15-.06,2-.83.29.69A.8.8,0,0,0,44,60.32l-.29-.69.94-.4.3.7a.8.8,0,0,0,1.47-.62l-.35-.83a3.66,3.66,0,0,0,.58-.46,2.81,2.81,0,0,0,.81-1.39,2.26,2.26,0,0,0-.12-1.45,2.3,2.3,0,0,0-.73-.93Zm-6.54-1.68.95-.41a5.18,5.18,0,0,1,1.21-.39,1,1,0,0,1,.64.14,1.05,1.05,0,0,1,.42.51,1,1,0,0,1,.07.66,1.16,1.16,0,0,1-.38.61,3.88,3.88,0,0,1-1,.59l-1,.41Zm5,4.22a1.27,1.27,0,0,1-.44.69,3.74,3.74,0,0,1-.87.49l-.66.28a1.23,1.23,0,0,1-.41.13.17.17,0,0,1-.15-.07,2.2,2.2,0,0,1-.23-.46L41.53,56l1.13-.49a3.65,3.65,0,0,1,1.16-.32,1.17,1.17,0,0,1,.71.16,1.2,1.2,0,0,1,.46.58A1.37,1.37,0,0,1,45.09,56.79Z"/><circle class="cls-2" cx="85.11" cy="45.91" r="14"/><path class="cls-3" d="M88.89,48.21l-4.75,1a.26.26,0,0,1-.27-.11L81,45.18a.28.28,0,0,1-.06-.23.28.28,0,0,1,.12-.21l6.41-5.27a.27.27,0,0,1,.45.17l1.22,8.23A.3.3,0,0,1,88.89,48.21Z"/><path class="cls-3" d="M87.71,49.82l-5.13,3.65a.27.27,0,0,1-.26,0,.29.29,0,0,1-.17-.2l-1.37-6.14a.32.32,0,0,1,.16-.34.28.28,0,0,1,.34.07l2.37,3.17,3.86-.78a.26.26,0,0,1,.32.17.31.31,0,0,1-.12.37Z"/><circle class="cls-2" cx="60.83" cy="20.67" r="13.96"/><path class="cls-3" d="M61.78,24.37l-.91-3.06,1.26-2.61a2.51,2.51,0,0,0,.12-1.87l-.13-.44a.16.16,0,0,0-.14-.12.15.15,0,0,0-.16.08l-1.51,3.13-.89-2.94a1.34,1.34,0,0,0-.7-.81,1.17,1.17,0,0,0-1,0,1.19,1.19,0,0,0-.54,1.42l1.65,5.46-.36.73a2,2,0,0,0-.08,1.55l.18.57a.15.15,0,0,0,.14.1.14.14,0,0,0,.14-.07l.52-1.09,1,3.22,6.07-3.23a1,1,0,0,0,.47-1.25,1.16,1.16,0,0,0-.61-.71,1,1,0,0,0-.9,0Z"/><path class="cls-4" d="M82.1,98.49a7,7,0,0,1-6.93-6.93V80a6.93,6.93,0,0,1,6.93-6.93h18.4V61.64a5.34,5.34,0,0,0-5.34-5.34H28.85a5.34,5.34,0,0,0-5.35,5.34V110a5.35,5.35,0,0,0,5.35,5.35h66.3A5.35,5.35,0,0,0,100.5,110V98.48H82.1Z"/><path class="cls-2" d="M100.41,77.3H82.59a3.13,3.13,0,0,0-3.09,3.17V92.13a3.13,3.13,0,0,0,3.09,3.17h17.82a3.13,3.13,0,0,0,3.09-3.17V80.47a3.28,3.28,0,0,0-.9-2.25A3.07,3.07,0,0,0,100.41,77.3ZM88.73,90.88a4.58,4.58,0,1,1,4.46-4.58A4.52,4.52,0,0,1,88.73,90.88Z"/></g></g></svg>