<svg xmlns="http://www.w3.org/2000/svg" width="112" height="35" viewBox="0 0 112 35">
    <defs>
        <linearGradient id="a" x1="111.139%" x2="-22.476%" y1="-31.827%" y2="111.199%">
            <stop offset="0%" stop-color="#3A3897"/>
            <stop offset="100%" stop-color="#29ABE2"/>
        </linearGradient>
    </defs>
    <path fill="url(#a)" fill-rule="nonzero" d="M104.272.882h-7.01c-2.176 0-3.796.588-4.752 2.738L79.04 33.854h9.526s1.554-4.065 1.907-4.956c1.043 0 10.299.014 11.617.014.271 1.152 1.106 4.942 1.106 4.942h8.417L104.272.882zM93.084 22.148c.746-1.894 3.614-9.22 3.614-9.22-.049.09.74-1.908 1.209-3.15l.611 2.845 2.102 9.525h-7.536zm-13.41.911c-.065 6.852-6.263 11.274-15.799 11.274-4.067-.042-7.985-.835-10.108-1.758l1.276-7.384 1.17.528c2.979 1.23 4.909 1.727 8.542 1.727 2.606 0 5.397-1.013 5.425-3.221.016-1.446-1.17-2.475-4.704-4.093-3.444-1.58-8.004-4.225-7.945-8.964C57.58 4.756 63.898.281 72.863.281c3.514 0 6.33.717 8.127 1.385l-1.227 7.15-.82-.381c-1.67-.666-3.821-1.309-6.79-1.263-3.55 0-5.198 1.467-5.198 2.838-.019 1.545 1.923 2.562 5.096 4.093 5.243 2.347 7.663 5.208 7.623 8.956zM0 1.225L.117.563h14.065c1.897.072 3.425.67 3.953 2.68l3.059 14.578C18.188 10.197 10.946 3.854 0 1.225zM41.022.878L26.735 33.805l-9.599.017L9.011 6.31c5.84 3.704 10.815 9.583 12.568 13.676l.947 3.397L31.411.885l9.611-.007zM44.69.85h9.077L48.09 33.84h-9.072L44.69.85z"/>
</svg>
