<svg xmlns="http://www.w3.org/2000/svg" width="188" height="60" viewBox="0 0 188 60">
    <defs>
        <linearGradient id="a" x1="111.139%" x2="-22.476%" y1="-31.827%" y2="111.199%">
            <stop offset="0%" stop-color="#3A3897"/>
            <stop offset="100%" stop-color="#29ABE2"/>
        </linearGradient>
    </defs>
    <g fill="url(#a)" fill-rule="nonzero">
        <path d="M115.525 15.691v.634a15.4 15.4 0 0 1-.22 2.453 15.616 15.616 0 0 1-12.868 12.893 15.776 15.776 0 0 1-13.816-4.41 15.842 15.842 0 0 1-4.404-13.837A15.81 15.81 0 0 1 97.085.528a15.315 15.315 0 0 1 2.452-.22H100.577a15.49 15.49 0 0 1 1.857.205l.38.072.379.083a15.55 15.55 0 0 1 11.336 9.927c.038.106.08.213.118.323.038.11.087.247.121.38.05.148.095.296.133.448.026.087.05.174.072.262.045.148.083.3.117.451.034.152.065.274.091.41.027.137.072.358.103.54.038.22.072.44.098.664.076.537.124 1.077.144 1.618zM151.613 6.38v6.38h10.31v5.164h-10.31v8.203h10.613v4.86h-16.678V1.215h16.678V6.38zM8.49 1.215H0v29.772h8.49c4.549 0 7.884-1.215 10.613-3.341A15.034 15.034 0 0 0 24.561 16.1c0-8.81-6.367-14.886-16.07-14.886zm6.975 22.481c-1.82 1.52-4.246 2.43-7.884 2.43H5.76V6.38h1.516c3.64 0 6.065.607 7.884 2.43a9.71 9.71 0 0 1 3.336 7.291 9.088 9.088 0 0 1-3.032 7.595zM27.29 1.215h5.761v29.772H27.29zM56.097 22.481c0 5.772-4.245 9.722-10.31 9.722-4.245 0-7.58-1.823-10.31-5.773l3.64-3.645a7.071 7.071 0 0 0 6.367 3.95c2.729 0 4.548-1.824 4.548-4.254a3.343 3.343 0 0 0-1.82-3.038c-.606-.608-1.515-.911-3.941-1.823-5.458-2.126-7.277-3.95-7.277-8.202 0-4.861 4.245-8.507 9.4-8.507a13.195 13.195 0 0 1 8.793 3.342l-3.032 3.95c-1.516-1.823-3.032-2.43-4.852-2.43-2.426 0-4.245 1.518-4.245 3.34 0 1.52.91 2.431 4.548 3.646 6.671 2.43 8.49 4.557 8.49 9.722zM81.265 22.785v6.987c-2.73 1.215-4.852 1.823-7.278 1.823h-.303c-8.794 0-15.768-6.684-15.768-15.494a15.326 15.326 0 0 1 3.245-9.35 17.076 17.076 0 0 1 2.274-2.433A17.475 17.475 0 0 1 73.684 0c2.54-.01 5.041.617 7.277 1.823V8.81c-2.426-2.43-4.548-3.342-7.277-3.342a9.341 9.341 0 0 0-6.5 2.602 10.586 10.586 0 0 0-3.203 7.727c0 6.076 4.245 10.33 10.006 10.33h.303c2.324 0 4.37-.836 6.671-3.038l.304-.304zM178.6 18.532c4.548-.912 6.974-3.95 6.974-8.507 0-5.468-3.942-8.81-10.613-8.81h-8.793v29.772h5.761V19.14h.91l8.187 11.848H188l-9.4-12.455zm-4.852-3.646h-1.819V5.772h1.82c3.638 0 5.76 1.52 5.76 4.557 0 3.038-2.122 4.557-5.76 4.557zM42.755 58.633V41.924l11.522 11.848V42.835h2.426v16.71L45.181 47.695v10.937zM68.832 45.266h-6.367v3.645h6.064v2.43h-6.064v5.165h6.367v2.127H60.04V42.835h8.793zM76.413 45.266v13.367h-2.426V45.266h-3.639v-2.127h9.704v2.127zM83.69 43.14l3.942 10.632 4.245-11.24 3.942 11.24 4.246-10.633h3.032l-6.974 16.71-3.942-11.241-4.246 11.24-6.67-16.709zM117.348 44.962a8.176 8.176 0 0 0-8.887-1.754 8.203 8.203 0 0 0-5.061 7.526c0 2.734.91 4.557 2.729 6.076 1.516 1.52 3.336 2.127 5.458 2.127a8.149 8.149 0 0 0 7.568-5.048 8.176 8.176 0 0 0-1.807-8.927zm-1.516 10.025a5.98 5.98 0 0 1-4.245 1.823c-1.516 0-2.729-.607-3.942-1.823a5.523 5.523 0 0 1-1.82-4.253 7.265 7.265 0 0 1 1.517-4.253 5.98 5.98 0 0 1 4.245-1.823 6.222 6.222 0 0 1 6.065 6.076 5.523 5.523 0 0 1-1.82 4.253zM128.265 51.95c.91 0 1.819-.608 2.425-1.823.607-.608.91-1.52.91-2.735a4.884 4.884 0 0 0-1.516-3.341c-.91-.912-2.426-1.216-4.549-1.216h-2.729v15.798h2.426v-6.38h.303l4.549 6.38h3.032l-4.851-6.684zm-3.336-1.823v-4.861h.91c2.122 0 3.335.911 3.335 2.43 0 1.52-1.213 2.43-3.335 2.43h-.91zM137.665 49.215l6.064-6.38h3.032l-6.974 6.988 6.974 8.506h-3.032l-5.761-6.987-.607.607v6.38h-2.426V42.532h2.426v6.683zM143.123 1.215L130.083 31.9h-3.335L114.316 1.215h6.368l7.884 20.05 6.868-16.814 1.319-3.236z"/>
    </g>
</svg>
