<svg xmlns="http://www.w3.org/2000/svg" xmlns:xlink="http://www.w3.org/1999/xlink" viewBox="0 0 127 122"><defs><style>.cls-1{fill:#482077;opacity:0;}.cls-2{fill:url(#linear-gradient);}.cls-3{fill:#44b91a;}.cls-4{fill:url(#linear-gradient-2);}.cls-5{fill:none;stroke:#44b91a;stroke-linecap:round;stroke-linejoin:round;stroke-width:3px;}</style><linearGradient id="linear-gradient" x1="1308.5" y1="5055.26" x2="1307.16" y2="5053.83" gradientTransform="matrix(20.38, 0, 0, -22.34, -26632.12, 113039.48)" gradientUnits="userSpaceOnUse"><stop offset="0" stop-color="#3a3897"/><stop offset="1" stop-color="#29abe2"/></linearGradient><linearGradient id="linear-gradient-2" x1="1308.48" y1="4987" x2="1307.15" y2="4985.57" gradientTransform="matrix(20.38, 0, 0, -34.53, -26579.12, 172285.85)" xlink:href="#linear-gradient"/></defs><title>statistic_2</title><g id="Layer_2" data-name="Layer 2"><g id="Capa_1" data-name="Capa 1"><rect class="cls-1" width="127" height="122"/><path class="cls-2" d="M35,98.81V111H14.58V98.81a10.19,10.19,0,0,1,20.38,0Z"/><path class="cls-3" d="M61.46,76.47V111H41.08V76.47a10.19,10.19,0,0,1,20.38,0Z"/><path class="cls-4" d="M88,86.62V111H67.58V86.62a10.2,10.2,0,0,1,20.39,0Z"/><path class="cls-3" d="M114.47,60.18V111H94.09V60.18a10.19,10.19,0,0,1,20.38,0Z"/><path class="cls-5" d="M12.53,59.42c28.86-22.78,43.71-24,52-20,3.06,1.49,4.41,3.28,7.81,4.1C85.05,46.29,99.87,28.16,111.07,11"/></g></g></svg>