<svg xmlns="http://www.w3.org/2000/svg" width="137" height="82" viewBox="0 0 137 82">
    <defs>
        <linearGradient id="a" x1="111.139%" x2="-22.476%" y1="-31.827%" y2="111.199%">
            <stop offset="0%" stop-color="#3A3897"/>
            <stop offset="100%" stop-color="#29ABE2"/>
        </linearGradient>
    </defs>
    <g fill="none" fill-rule="nonzero">
        <path fill="#F7142F" d="M72.254 75.297a22.728 22.728 0 0 0-3.754-.43c1.254.027 2.507.17 3.754.43z"/>
        <path fill="url(#a)" d="M137 41.055c0 22.384-18.12 40.779-40.437 40.779a40.2 40.2 0 0 1-25.632-9.087A43.473 43.473 0 0 0 82.42 53.91h-3.315C77.118 60.336 73.361 66.1 68.5 70.753c-4.861-4.654-8.397-10.417-10.606-16.844h-3.315a43.473 43.473 0 0 0 11.49 18.838 40.394 40.394 0 0 1-25.41 9.087C18.118 81.834 0 63.439 0 41.055 0 18.672 18.12.277 40.437.277h.738a40.42 40.42 0 0 1 3.753.238l.613.072.343.042.16.022c3.87.56 7.643 1.668 11.203 3.291h.017a46.952 46.952 0 0 1 9.026 5.422A43.473 43.473 0 0 0 54.8 28.2h2.873c2.21-6.427 5.745-12.189 10.606-16.843l.428.421.207.205A42.067 42.067 0 0 1 79.03 28.201H82.2A43.543 43.543 0 0 0 71.674 10.32l-.47-.473a26.96 26.96 0 0 0-.494-.482A40.2 40.2 0 0 1 96.342.277h.74c.246 0 .553 0 .829.022l.306.014c.213 0 .423.02.633.033.21.014.461.028.688.047l.45.047c.517.045 1.03.1 1.538.167a40.203 40.203 0 0 1 28.806 18.092l.163.252A40.663 40.663 0 0 1 137 41.055z"/>
        <path fill="#FFF" d="M118.107 35.412l-1.105 3.99c-1.104 0-2.872-.222-4.198 4.21l-1.326 6.87h-4.198l2.872-15.07h3.536l.442 1.552c.663-.673 1.768-1.552 3.977-1.552zM54.69 44.72c-.221 1.109 0 2.217 2.21 1.773l-.443 3.325c-.884.665-1.988.665-3.093.665-.884 0-3.978-.665-3.315-4.654l3.094-14.184h3.977l-.884 3.989h2.21l-.663 3.103h-1.989L54.69 44.72zM70.82 43.834c.442-2.438 1.547-8.422-5.524-8.422-6.63 0-7.513 6.649-7.513 7.535-.22.887-.22 7.536 6.85 7.536 1.768 0 4.198-.222 5.303-.665l.663-3.103c-.663.222-2.872.443-4.64.443-1.547 0-4.199 0-3.757-3.324h8.618zm-5.303-5.54c1.547 0 1.989 1.108 1.768 2.659h-5.083c.442-1.773 1.547-2.66 3.315-2.66zM49.607 46.05c-.663 4.433-5.524 4.211-6.629 4.211a19.761 19.761 0 0 1-4.861-.443l.663-3.103c1.989.665 4.64.443 5.303.443 1.326 0 1.547-1.773.442-2.216-.884-.443-1.768-1.108-3.315-1.773-.883-.443-1.988-1.551-1.325-4.432.663-3.546 5.524-3.546 6.187-3.546 1.353.002 2.696.227 3.977.665l-.884 3.102c-1.105-.221-3.093-.221-3.756-.443-1.547.443-.884 1.773 0 2.216.884.222 1.989 1.108 2.872 1.552.663.656 1.768 1.551 1.326 3.767zM26.185 32.31l-3.536 18.173h-4.198l2.43-12.854-5.745 12.854H11.38l-1.105-13.076-2.652 13.076H3.646L7.181 32.31h6.409l.883 11.08 4.862-11.08zM32.15 35.634c-.883-.222-2.209-.222-4.86.222l-.663 3.324c1.104 0 3.756-.443 5.082-.443s3.093-.222 2.43 1.994c-1.104 0-8.396-1.108-9.501 5.32-.442 3.102 2.21 4.653 4.198 4.653 1.989 0 2.652-.443 3.315-.886l.442.878h3.756l1.547-8.2c.442-1.986 1.105-6.862-5.745-6.862zm1.106 9.751c-.442 1.33-2.21 2.217-3.536 1.773-1.547-.443-1.105-1.994.221-2.88 1.326-.887 2.873-.444 3.536-.444l-.221 1.551zM85.404 40.723c-.663 4.432 2.21 6.427 6.408 5.097l1.105 3.768c-1.326.665-2.652.886-4.861.886-4.199 0-8.84-3.767-6.85-11.524 1.546-5.54 6.408-7.757 9.28-7.535 3.315.221 4.64 1.33 5.524 2.438l-2.651 2.66c-1.105-.666-1.768-.666-3.094-.666-1.325 0-4.419 1.338-4.861 4.876zM129.156 31.423l-1.105 5.762c-.884-.665-1.326-1.773-3.094-1.773-2.21 0-5.745-.443-7.734 6.427-1.325 4.654 1.326 8.644 4.199 8.644 1.326 0 2.651-.665 3.535-1.108l.442 1.108h4.42l3.535-19.06h-4.198zm-2.431 11.968c-.884 1.773-1.768 2.88-3.315 2.88-1.325 0-2.651-1.55-1.988-3.767.884-3.324 3.756-4.654 5.082-2.88.442.664.663 2.437.221 3.767z"/>
        <path fill="#FFF" d="M101.093 35.634c-.663-.222-2.21-.222-4.862.222l-.662 3.324c1.104 0 3.756-.443 5.082-.443s2.872-.222 2.43 1.994c-1.104 0-8.396-1.108-9.501 5.32-.442 3.102 2.21 4.653 4.198 4.653 1.989 0 2.652-.443 3.315-.886l.442.886h3.756l1.547-8.2c.442-1.994 1.105-6.87-5.745-6.87zm1.326 9.751c-.221 1.33-2.21 2.217-3.536 1.773-1.547-.443-1.105-1.994.221-2.88 1.326-.887 2.873-.444 3.536-.444l-.221 1.551zM81.648 35.634l-1.105 3.99c-.884 0-2.873-.222-4.199 4.21l-1.325 6.862H70.82v-.222l2.873-14.848h3.535l.442 1.551c.663-.657 1.768-1.543 3.978-1.543z"/>
    </g>
</svg>
