<svg xmlns="http://www.w3.org/2000/svg" width="50" height="50" viewBox="0 0 50 50">
    <g fill="none" fill-rule="nonzero">
        <path fill="#ED6C0C" d="M23.541 25L22 31.106c1.981.421 8.035 2.316 8.916-1.158.88-3.58-5.394-4.422-7.375-4.948z"/>
        <path fill="#E05A00" d="M30.897 29.123c.988-2.983-5.382-3.772-7.36-4.123L22 30"/>
        <path fill="#ED6C0C" d="M25.324 17L24 23.153c1.528.465 6.215 2.206 6.928-1.277.713-3.599-4.075-4.412-5.604-4.876z"/>
        <path fill="#E05A00" d="M30.91 20.962c.812-2.924-4.065-3.585-5.59-3.962L24 22"/>
        <path fill="#FFB600" d="M31.037.74C17.61-2.59 4.077 5.635.747 18.96c-3.331 13.43 4.788 26.963 18.216 30.294 13.427 3.331 26.96-4.789 30.29-18.218C52.584 17.71 44.465 4.176 31.037.741zm4.997 20.717c-.313 2.395-1.666 3.644-3.54 4.06 2.499 1.25 3.748 3.228 2.499 6.663-1.458 4.268-4.997 4.58-9.68 3.748l-1.146 4.58-2.706-.832 1.145-4.477c-.729-.208-1.457-.416-2.186-.52l-1.145 4.476-2.706-.729 1.145-4.58c-.625-.208-1.25-.313-1.978-.52l-3.54-.938 1.354-3.123 1.978.52c.728.209 1.145-.312 1.249-.624l1.77-7.183c.103 0 .208 0 .312.104-.104 0-.209-.104-.313-.104l1.25-5.101c0-.625-.209-1.353-1.25-1.562l-1.977-.52.728-2.915 3.748.937c.52.104 1.145.312 1.77.416l1.144-4.476 2.706.729-1.145 4.372c.73.208 1.458.312 2.186.52l1.041-4.372 2.707.729-1.145 4.476c3.643 1.145 6.245 2.915 5.725 6.246z"/>
        <path fill="#F6921E" d="M.747 19.122c-3.331 13.359 4.788 26.821 18.216 30.135 13.427 3.314 26.96-4.764 30.29-18.122C52.584 17.776 44.465 4.314 31.037 1L.747 19.122zm35.287 2.486c-.313 2.381-1.666 3.624-3.54 4.038 2.499 1.243 3.748 3.21 2.499 6.628-1.458 4.246-4.997 4.556-9.68 3.728l-1.146 4.556-2.706-.828 1.145-4.453c-.729-.207-1.457-.414-2.186-.518l-1.145 4.453-2.706-.725 1.145-4.556c-.625-.207-1.25-.31-1.978-.518l-3.54-.932 1.354-3.107 1.978.518c.728.207 1.145-.31 1.249-.621l1.77-7.146c.103 0 .208 0 .312.104-.104 0-.209-.104-.313-.104l1.25-5.074c0-.621-.209-1.346-1.25-1.553l-1.977-.518.728-2.9 3.748.932c.52.104 1.145.311 1.77.415l1.144-4.453 2.706.725-1.145 4.349c.73.207 1.458.31 2.186.518l1.041-4.35 2.707.725-1.145 4.453c3.643 1.14 6.245 2.9 5.725 6.214z"/>
        <path fill="#D85107" d="M48 31.043L34.644 18c.514.803.822 1.806.616 3.01-.308 2.308-1.644 3.512-3.493 3.913 2.466 1.204 3.699 3.11 2.466 6.421-1.438 4.114-4.932 4.415-9.555 3.613l-1.13 4.414-2.774-.903 1.13-4.314c-.72-.2-1.438-.401-2.157-.502l-1.13 4.315-.617-.201L28.48 48c9.04-1.505 16.849-7.926 19.52-16.957z"/>
        <g fill="#E26600">
            <path d="M12.059 32.36l4.742 4.6.844-3.27c-.633-.205-1.265-.307-2.003-.511l-3.583-.818zM31.029 14.063l-.422 1.329c1.265.409 2.424.92 3.373 1.533l-2.951-2.862z"/>
        </g>
        <g fill="#ED6C0C">
            <path d="M26.552 10.112l-1.17 4.227c.745.202 1.488.302 2.232.504l.744-3.02-1.806-1.71zM31.545 11.22l-1.168 4.327.106.1c3.187 1.007 5.631 2.618 5.631 5.335l12.75 12.077c.213-.704.425-1.409.638-2.012.212-.806.318-1.51.425-2.315L31.545 11.219zM33.99 47.653l-9.67-9.159-.425 1.51-2.762-.705.85-3.12-1.913-1.811-1.168 4.328-2.763-.705v-.1l-.106.1 11.581 10.97c2.231-.1 4.356-.603 6.375-1.308z"/>
        </g>
        <path fill="#E05A00" d="M37 45.884L25.828 35h-.104l-1.138 4.434L22 38.83 31.414 48A26.501 26.501 0 0 0 37 45.884z"/>
    </g>
</svg>
